<svg xmlns="http://www.w3.org/2000/svg" viewBox="0 0 1920 1080" width="1920" height="1080" fill="none"><line x1="834.1" y1="487.0" x2="932.8" y2="477.1" stroke="#5A8AC9" stroke-opacity="0.13" stroke-width="1"></line><line x1="673.2" y1="482.8" x2="566.9" y2="523.8" stroke="#5A8AC9" stroke-opacity="0.13" stroke-width="1"></line><line x1="210.3" y1="956.1" x2="124.5" y2="886.9" stroke="#5A8AC9" stroke-opacity="0.13" stroke-width="1"></line><line x1="459.6" y1="589.7" x2="381.7" y2="533.6" stroke="#5A8AC9" stroke-opacity="0.13" stroke-width="1"></line><line x1="459.6" y1="589.7" x2="481.2" y2="700.6" stroke="#5A8AC9" stroke-opacity="0.13" stroke-width="1"></line><line x1="1236.8" y1="629.1" x2="1218.3" y2="529.9" stroke="#5A8AC9" stroke-opacity="0.13" stroke-width="1"></line><line x1="1236.8" y1="629.1" x2="1169.8" y2="726.7" stroke="#5A8AC9" stroke-opacity="0.13" stroke-width="1"></line><line x1="1754.7" y1="621.9" x2="1876.7" y2="647.4" stroke="#5A8AC9" stroke-opacity="0.13" stroke-width="1"></line><line x1="1754.7" y1="621.9" x2="1664.9" y2="716.9" stroke="#5A8AC9" stroke-opacity="0.13" stroke-width="1"></line><line x1="1221.2" y1="167.8" x2="1099.6" y2="163.0" stroke="#5A8AC9" stroke-opacity="0.13" stroke-width="1"></line><line x1="1490.9" y1="319.9" x2="1463.0" y2="192.4" stroke="#5A8AC9" stroke-opacity="0.13" stroke-width="1"></line><line x1="1490.9" y1="319.9" x2="1618.1" y2="227.8" stroke="#5A8AC9" stroke-opacity="0.13" stroke-width="1"></line><line x1="255.8" y1="250.6" x2="304.5" y2="332.6" stroke="#5A8AC9" stroke-opacity="0.13" stroke-width="1"></line><line x1="1706.2" y1="1011.1" x2="1717.5" y2="860.8" stroke="#5A8AC9" stroke-opacity="0.13" stroke-width="1"></line><line x1="1706.2" y1="1011.1" x2="1816.1" y2="898.1" stroke="#5A8AC9" stroke-opacity="0.13" stroke-width="1"></line><line x1="1557.8" y1="761.9" x2="1664.9" y2="716.9" stroke="#5A8AC9" stroke-opacity="0.13" stroke-width="1"></line><line x1="494.3" y1="419.0" x2="398.6" y2="370.9" stroke="#5A8AC9" stroke-opacity="0.13" stroke-width="1"></line><line x1="494.3" y1="419.0" x2="566.9" y2="523.8" stroke="#5A8AC9" stroke-opacity="0.13" stroke-width="1"></line><line x1="1721.3" y1="399.8" x2="1626.5" y2="414.8" stroke="#5A8AC9" stroke-opacity="0.13" stroke-width="1"></line><line x1="1721.3" y1="399.8" x2="1659.3" y2="515.6" stroke="#5A8AC9" stroke-opacity="0.13" stroke-width="1"></line><line x1="1583.2" y1="617.3" x2="1481.5" y2="649.3" stroke="#5A8AC9" stroke-opacity="0.13" stroke-width="1"></line><line x1="1294.7" y1="67.9" x2="1198.8" y2="44.3" stroke="#5A8AC9" stroke-opacity="0.13" stroke-width="1"></line><line x1="1197.9" y1="950.5" x2="1159.6" y2="846.3" stroke="#5A8AC9" stroke-opacity="0.13" stroke-width="1"></line><line x1="1159.6" y1="846.3" x2="1169.8" y2="726.7" stroke="#5A8AC9" stroke-opacity="0.13" stroke-width="1"></line><line x1="793.1" y1="97.9" x2="697.7" y2="127.8" stroke="#5A8AC9" stroke-opacity="0.13" stroke-width="1"></line><line x1="793.1" y1="97.9" x2="889.8" y2="174.0" stroke="#5A8AC9" stroke-opacity="0.13" stroke-width="1"></line><line x1="787.6" y1="1002.7" x2="691.5" y2="1018.6" stroke="#5A8AC9" stroke-opacity="0.13" stroke-width="1"></line><line x1="1086.9" y1="258.9" x2="1099.6" y2="163.0" stroke="#5A8AC9" stroke-opacity="0.13" stroke-width="1"></line><line x1="304.5" y1="332.6" x2="398.6" y2="370.9" stroke="#5A8AC9" stroke-opacity="0.13" stroke-width="1"></line><line x1="1331.4" y1="468.2" x2="1218.3" y2="529.9" stroke="#5A8AC9" stroke-opacity="0.13" stroke-width="1"></line><line x1="1331.4" y1="468.2" x2="1444.8" y2="540.2" stroke="#5A8AC9" stroke-opacity="0.13" stroke-width="1"></line><line x1="1469.4" y1="921.9" x2="1442.4" y2="1027.7" stroke="#5A8AC9" stroke-opacity="0.13" stroke-width="1"></line><line x1="1469.4" y1="921.9" x2="1362.6" y2="890.4" stroke="#5A8AC9" stroke-opacity="0.13" stroke-width="1"></line><line x1="576.0" y1="765.7" x2="481.2" y2="700.6" stroke="#5A8AC9" stroke-opacity="0.13" stroke-width="1"></line><line x1="1444.8" y1="540.2" x2="1481.5" y2="649.3" stroke="#5A8AC9" stroke-opacity="0.13" stroke-width="1"></line><line x1="359.0" y1="978.9" x2="350.9" y2="883.5" stroke="#5A8AC9" stroke-opacity="0.13" stroke-width="1"></line><line x1="359.0" y1="978.9" x2="498.9" y2="1025.4" stroke="#5A8AC9" stroke-opacity="0.13" stroke-width="1"></line><line x1="1094.5" y1="478.3" x2="1218.3" y2="529.9" stroke="#5A8AC9" stroke-opacity="0.13" stroke-width="1"></line><line x1="1481.5" y1="649.3" x2="1435.3" y2="733.8" stroke="#5A8AC9" stroke-opacity="0.13" stroke-width="1"></line><line x1="456.2" y1="849.8" x2="350.9" y2="883.5" stroke="#5A8AC9" stroke-opacity="0.13" stroke-width="1"></line><line x1="1659.3" y1="515.6" x2="1626.5" y2="414.8" stroke="#5A8AC9" stroke-opacity="0.13" stroke-width="1"></line><line x1="889.8" y1="174.0" x2="810.0" y2="234.9" stroke="#5A8AC9" stroke-opacity="0.13" stroke-width="1"></line><line x1="459.4" y1="104.8" x2="566.3" y2="159.3" stroke="#5A8AC9" stroke-opacity="0.13" stroke-width="1"></line><line x1="459.4" y1="104.8" x2="324.5" y2="153.1" stroke="#5A8AC9" stroke-opacity="0.13" stroke-width="1"></line><line x1="1070.5" y1="743.1" x2="1169.8" y2="726.7" stroke="#5A8AC9" stroke-opacity="0.13" stroke-width="1"></line><line x1="761.1" y1="863.9" x2="881.4" y2="833.0" stroke="#5A8AC9" stroke-opacity="0.13" stroke-width="1"></line><line x1="34.8" y1="163.0" x2="214.1" y2="119.5" stroke="#5A8AC9" stroke-opacity="0.13" stroke-width="1"></line><line x1="1463.0" y1="192.4" x2="1618.1" y2="227.8" stroke="#5A8AC9" stroke-opacity="0.13" stroke-width="1"></line><line x1="1876.7" y1="647.4" x2="1876.2" y2="769.4" stroke="#5A8AC9" stroke-opacity="0.13" stroke-width="1"></line><line x1="203.0" y1="504.3" x2="170.4" y2="393.0" stroke="#5A8AC9" stroke-opacity="0.13" stroke-width="1"></line><line x1="350.9" y1="883.5" x2="261.3" y2="847.0" stroke="#5A8AC9" stroke-opacity="0.13" stroke-width="1"></line><line x1="214.1" y1="119.5" x2="278.8" y2="40.1" stroke="#5A8AC9" stroke-opacity="0.13" stroke-width="1"></line><line x1="939.9" y1="580.0" x2="932.8" y2="477.1" stroke="#5A8AC9" stroke-opacity="0.13" stroke-width="1"></line><line x1="1717.5" y1="860.8" x2="1816.1" y2="898.1" stroke="#5A8AC9" stroke-opacity="0.13" stroke-width="1"></line><line x1="1717.5" y1="860.8" x2="1770.7" y2="755.9" stroke="#5A8AC9" stroke-opacity="0.13" stroke-width="1"></line><line x1="1664.9" y1="716.9" x2="1770.7" y2="755.9" stroke="#5A8AC9" stroke-opacity="0.13" stroke-width="1"></line><line x1="1816.1" y1="898.1" x2="1876.2" y2="769.4" stroke="#5A8AC9" stroke-opacity="0.13" stroke-width="1"></line><line x1="881.4" y1="833.0" x2="863.9" y2="729.2" stroke="#5A8AC9" stroke-opacity="0.13" stroke-width="1"></line><line x1="863.9" y1="729.2" x2="743.5" y2="654.1" stroke="#5A8AC9" stroke-opacity="0.13" stroke-width="1"></line><line x1="1877.9" y1="63.1" x2="1824.1" y2="192.3" stroke="#5A8AC9" stroke-opacity="0.13" stroke-width="1"></line><line x1="1726.7" y1="241.6" x2="1818.2" y2="293.4" stroke="#5A8AC9" stroke-opacity="0.13" stroke-width="1"></line><line x1="1345.9" y1="685.1" x2="1435.3" y2="733.8" stroke="#5A8AC9" stroke-opacity="0.13" stroke-width="1"></line><line x1="1362.6" y1="890.4" x2="1442.4" y2="1027.7" stroke="#5A8AC9" stroke-opacity="0.13" stroke-width="1"></line><line x1="949.5" y1="359.6" x2="932.8" y2="477.1" stroke="#5A8AC9" stroke-opacity="0.13" stroke-width="1"></line><line x1="269.6" y1="751.7" x2="261.3" y2="847.0" stroke="#5A8AC9" stroke-opacity="0.13" stroke-width="1"></line><line x1="269.6" y1="751.7" x2="173.3" y2="724.7" stroke="#5A8AC9" stroke-opacity="0.13" stroke-width="1"></line><line x1="1876.2" y1="769.4" x2="1770.7" y2="755.9" stroke="#5A8AC9" stroke-opacity="0.13" stroke-width="1"></line><line x1="1824.1" y1="192.3" x2="1818.2" y2="293.4" stroke="#5A8AC9" stroke-opacity="0.13" stroke-width="1"></line><line x1="1630.9" y1="103.6" x2="1618.1" y2="227.8" stroke="#5A8AC9" stroke-opacity="0.13" stroke-width="1"></line><line x1="40.7" y1="751.8" x2="53.3" y2="648.5" stroke="#5A8AC9" stroke-opacity="0.13" stroke-width="1"></line><line x1="481.2" y1="700.6" x2="382.6" y2="689.1" stroke="#5A8AC9" stroke-opacity="0.13" stroke-width="1"></line><line x1="53.3" y1="648.5" x2="173.3" y2="724.7" stroke="#5A8AC9" stroke-opacity="0.13" stroke-width="1"></line><line x1="1018.9" y1="44.4" x2="1198.8" y2="44.3" stroke="#5A8AC9" stroke-opacity="0.13" stroke-width="1"></line><line x1="124.5" y1="886.9" x2="261.3" y2="847.0" stroke="#5A8AC9" stroke-opacity="0.13" stroke-width="1"></line><line x1="1544.6" y1="1033.3" x2="1442.4" y2="1027.7" stroke="#5A8AC9" stroke-opacity="0.13" stroke-width="1"></line><circle class="nd" cx="834.1" cy="487.0" r="2.9" fill="#4A6B8F" fill-opacity="0.55" style="animation-delay:7.0s"></circle><circle class="nd" cx="673.2" cy="482.8" r="2.3" fill="#1E56C9" fill-opacity="0.55" style="animation-delay:2.7s"></circle><circle class="nd" cx="210.3" cy="956.1" r="4.3" fill="#3E74D6" fill-opacity="0.55" style="animation-delay:3.9s"></circle><circle class="nd" cx="459.6" cy="589.7" r="2.3" fill="#4A6B8F" fill-opacity="0.55" style="animation-delay:7.2s"></circle><circle class="nd" cx="1236.8" cy="629.1" r="2.6" fill="#2E5A7C" fill-opacity="0.55" style="animation-delay:5.1s"></circle><circle class="nd" cx="1754.7" cy="621.9" r="3.4" fill="#4A6B8F" fill-opacity="0.55" style="animation-delay:6.4s"></circle><circle class="nd" cx="1221.2" cy="167.8" r="2.0" fill="#1E56C9" fill-opacity="0.55" style="animation-delay:3.1s"></circle><circle class="nd" cx="1490.9" cy="319.9" r="4.8" fill="#3E74D6" fill-opacity="0.55" style="animation-delay:0.2s"></circle><circle class="nd" cx="255.8" cy="250.6" r="3.0" fill="#4A6B8F" fill-opacity="0.55" style="animation-delay:1.7s"></circle><circle class="nd" cx="1706.2" cy="1011.1" r="2.0" fill="#3E74D6" fill-opacity="0.55" style="animation-delay:6.1s"></circle><circle class="nd" cx="1557.8" cy="761.9" r="2.4" fill="#2E5A7C" fill-opacity="0.55" style="animation-delay:6.3s"></circle><circle class="nd" cx="494.3" cy="419.0" r="3.1" fill="#3E74D6" fill-opacity="0.55" style="animation-delay:4.5s"></circle><circle class="nd" cx="1721.3" cy="399.8" r="3.2" fill="#3E74D6" fill-opacity="0.55" style="animation-delay:5.6s"></circle><circle class="nd" cx="1583.2" cy="617.3" r="2.1" fill="#1E56C9" fill-opacity="0.55" style="animation-delay:0.0s"></circle><circle class="nd" cx="1294.7" cy="67.9" r="2.9" fill="#1E56C9" fill-opacity="0.55" style="animation-delay:6.8s"></circle><circle class="nd" cx="1197.9" cy="950.5" r="3.5" fill="#E8A020" fill-opacity="0.9" style="animation-delay:5.9s"></circle><circle class="nd" cx="1159.6" cy="846.3" r="4.7" fill="#2E5A7C" fill-opacity="0.55" style="animation-delay:6.8s"></circle><circle class="nd" cx="793.1" cy="97.9" r="2.8" fill="#3E74D6" fill-opacity="0.55" style="animation-delay:5.8s"></circle><circle class="nd" cx="787.6" cy="1002.7" r="3.3" fill="#3E74D6" fill-opacity="0.55" style="animation-delay:2.7s"></circle><circle class="nd" cx="1086.9" cy="258.9" r="2.1" fill="#4A6B8F" fill-opacity="0.55" style="animation-delay:7.8s"></circle><circle class="nd" cx="304.5" cy="332.6" r="3.5" fill="#3E74D6" fill-opacity="0.55" style="animation-delay:6.5s"></circle><circle class="nd" cx="1331.4" cy="468.2" r="4.3" fill="#4A6B8F" fill-opacity="0.55" style="animation-delay:2.1s"></circle><circle class="nd" cx="1469.4" cy="921.9" r="4.1" fill="#1E56C9" fill-opacity="0.55" style="animation-delay:5.6s"></circle><circle class="nd" cx="576.0" cy="765.7" r="2.6" fill="#4A6B8F" fill-opacity="0.55" style="animation-delay:5.6s"></circle><circle class="nd" cx="1444.8" cy="540.2" r="2.3" fill="#4A6B8F" fill-opacity="0.55" style="animation-delay:6.9s"></circle><circle class="nd" cx="359.0" cy="978.9" r="3.8" fill="#4A6B8F" fill-opacity="0.55" style="animation-delay:4.6s"></circle><circle class="nd" cx="1099.6" cy="163.0" r="2.9" fill="#4A6B8F" fill-opacity="0.55" style="animation-delay:6.4s"></circle><circle class="nd" cx="1094.5" cy="478.3" r="2.4" fill="#1E56C9" fill-opacity="0.55" style="animation-delay:6.2s"></circle><circle class="nd" cx="1481.5" cy="649.3" r="2.4" fill="#2E5A7C" fill-opacity="0.55" style="animation-delay:3.3s"></circle><circle class="nd" cx="456.2" cy="849.8" r="2.7" fill="#3E74D6" fill-opacity="0.55" style="animation-delay:7.3s"></circle><circle class="nd" cx="1659.3" cy="515.6" r="2.1" fill="#4A6B8F" fill-opacity="0.55" style="animation-delay:5.1s"></circle><circle class="nd" cx="889.8" cy="174.0" r="2.0" fill="#E8A020" fill-opacity="0.9" style="animation-delay:0.6s"></circle><circle class="nd" cx="810.0" cy="234.9" r="2.7" fill="#3E74D6" fill-opacity="0.55" style="animation-delay:0.9s"></circle><circle class="nd" cx="459.4" cy="104.8" r="3.9" fill="#2E5A7C" fill-opacity="0.55" style="animation-delay:6.1s"></circle><circle class="nd" cx="566.3" cy="159.3" r="2.4" fill="#1E56C9" fill-opacity="0.55" style="animation-delay:3.1s"></circle><circle class="nd" cx="1070.5" cy="743.1" r="2.7" fill="#4A6B8F" fill-opacity="0.55" style="animation-delay:1.0s"></circle><circle class="nd" cx="761.1" cy="863.9" r="4.9" fill="#3E74D6" fill-opacity="0.55" style="animation-delay:5.4s"></circle><circle class="nd" cx="1169.8" cy="726.7" r="3.6" fill="#2E5A7C" fill-opacity="0.55" style="animation-delay:3.3s"></circle><circle class="nd" cx="34.8" cy="163.0" r="2.3" fill="#E8A020" fill-opacity="0.9" style="animation-delay:6.4s"></circle><circle class="nd" cx="1463.0" cy="192.4" r="2.3" fill="#1E56C9" fill-opacity="0.55" style="animation-delay:1.3s"></circle><circle class="nd" cx="1876.7" cy="647.4" r="2.4" fill="#2E5A7C" fill-opacity="0.55" style="animation-delay:0.3s"></circle><circle class="nd" cx="203.0" cy="504.3" r="2.6" fill="#2E5A7C" fill-opacity="0.55" style="animation-delay:3.2s"></circle><circle class="nd" cx="350.9" cy="883.5" r="3.1" fill="#2E5A7C" fill-opacity="0.55" style="animation-delay:4.8s"></circle><circle class="nd" cx="214.1" cy="119.5" r="4.4" fill="#3E74D6" fill-opacity="0.55" style="animation-delay:6.7s"></circle><circle class="nd" cx="939.9" cy="580.0" r="2.8" fill="#E8A020" fill-opacity="0.9" style="animation-delay:5.5s"></circle><circle class="nd" cx="398.6" cy="370.9" r="2.1" fill="#4A6B8F" fill-opacity="0.55" style="animation-delay:6.4s"></circle><circle class="nd" cx="1717.5" cy="860.8" r="2.1" fill="#E8A020" fill-opacity="0.9" style="animation-delay:6.1s"></circle><circle class="nd" cx="1664.9" cy="716.9" r="2.2" fill="#3E74D6" fill-opacity="0.55" style="animation-delay:4.6s"></circle><circle class="nd" cx="1816.1" cy="898.1" r="2.4" fill="#4A6B8F" fill-opacity="0.55" style="animation-delay:6.1s"></circle><circle class="nd" cx="881.4" cy="833.0" r="3.5" fill="#2E5A7C" fill-opacity="0.55" style="animation-delay:1.9s"></circle><circle class="nd" cx="863.9" cy="729.2" r="2.1" fill="#4A6B8F" fill-opacity="0.55" style="animation-delay:3.1s"></circle><circle class="nd" cx="1626.5" cy="414.8" r="2.3" fill="#1E56C9" fill-opacity="0.55" style="animation-delay:0.9s"></circle><circle class="nd" cx="1877.9" cy="63.1" r="3.6" fill="#1E56C9" fill-opacity="0.55" style="animation-delay:2.7s"></circle><circle class="nd" cx="1726.7" cy="241.6" r="4.5" fill="#4A6B8F" fill-opacity="0.55" style="animation-delay:1.4s"></circle><circle class="nd" cx="1345.9" cy="685.1" r="2.7" fill="#3E74D6" fill-opacity="0.55" style="animation-delay:4.5s"></circle><circle class="nd" cx="1362.6" cy="890.4" r="2.1" fill="#2E5A7C" fill-opacity="0.55" style="animation-delay:5.9s"></circle><circle class="nd" cx="949.5" cy="359.6" r="2.5" fill="#4A6B8F" fill-opacity="0.55" style="animation-delay:6.3s"></circle><circle class="nd" cx="170.4" cy="393.0" r="3.6" fill="#2E5A7C" fill-opacity="0.55" style="animation-delay:5.0s"></circle><circle class="nd" cx="381.7" cy="533.6" r="5.5" fill="#1E56C9" fill-opacity="0.55" style="animation-delay:6.3s"></circle><circle class="nd" cx="1218.3" cy="529.9" r="2.4" fill="#3E74D6" fill-opacity="0.55" style="animation-delay:2.8s"></circle><circle class="nd" cx="697.7" cy="127.8" r="5.0" fill="#4A6B8F" fill-opacity="0.55" style="animation-delay:3.9s"></circle><circle class="nd" cx="269.6" cy="751.7" r="2.4" fill="#1E56C9" fill-opacity="0.55" style="animation-delay:3.2s"></circle><circle class="nd" cx="498.9" cy="1025.4" r="2.5" fill="#E8A020" fill-opacity="0.9" style="animation-delay:2.7s"></circle><circle class="nd" cx="1876.2" cy="769.4" r="2.4" fill="#1E56C9" fill-opacity="0.55" style="animation-delay:0.4s"></circle><circle class="nd" cx="1824.1" cy="192.3" r="2.1" fill="#1E56C9" fill-opacity="0.55" style="animation-delay:6.3s"></circle><circle class="nd" cx="1630.9" cy="103.6" r="3.3" fill="#1E56C9" fill-opacity="0.55" style="animation-delay:6.3s"></circle><circle class="nd" cx="40.7" cy="751.8" r="5.7" fill="#3E74D6" fill-opacity="0.55" style="animation-delay:5.3s"></circle><circle class="nd" cx="481.2" cy="700.6" r="5.0" fill="#2E5A7C" fill-opacity="0.55" style="animation-delay:6.1s"></circle><circle class="nd" cx="324.5" cy="153.1" r="2.3" fill="#3E74D6" fill-opacity="0.55" style="animation-delay:2.6s"></circle><circle class="nd" cx="1435.3" cy="733.8" r="2.9" fill="#3E74D6" fill-opacity="0.55" style="animation-delay:2.5s"></circle><circle class="nd" cx="53.3" cy="648.5" r="2.6" fill="#1E56C9" fill-opacity="0.55" style="animation-delay:3.1s"></circle><circle class="nd" cx="932.8" cy="477.1" r="2.9" fill="#1E56C9" fill-opacity="0.55" style="animation-delay:6.3s"></circle><circle class="nd" cx="1018.9" cy="44.4" r="2.9" fill="#1E56C9" fill-opacity="0.55" style="animation-delay:3.4s"></circle><circle class="nd" cx="1618.1" cy="227.8" r="2.8" fill="#1E56C9" fill-opacity="0.55" style="animation-delay:0.8s"></circle><circle class="nd" cx="566.9" cy="523.8" r="3.0" fill="#1E56C9" fill-opacity="0.55" style="animation-delay:3.0s"></circle><circle class="nd" cx="1770.7" cy="755.9" r="2.4" fill="#2E5A7C" fill-opacity="0.55" style="animation-delay:1.4s"></circle><circle class="nd" cx="173.3" cy="724.7" r="2.8" fill="#4A6B8F" fill-opacity="0.55" style="animation-delay:4.7s"></circle><circle class="nd" cx="124.5" cy="886.9" r="4.2" fill="#3E74D6" fill-opacity="0.55" style="animation-delay:2.3s"></circle><circle class="nd" cx="278.8" cy="40.1" r="5.7" fill="#E8A020" fill-opacity="0.9" style="animation-delay:6.9s"></circle><circle class="nd" cx="1818.2" cy="293.4" r="2.8" fill="#4A6B8F" fill-opacity="0.55" style="animation-delay:5.7s"></circle><circle class="nd" cx="1544.6" cy="1033.3" r="2.1" fill="#3E74D6" fill-opacity="0.55" style="animation-delay:0.3s"></circle><circle class="nd" cx="261.3" cy="847.0" r="3.7" fill="#2E5A7C" fill-opacity="0.55" style="animation-delay:7.9s"></circle><circle class="nd" cx="1198.8" cy="44.3" r="2.1" fill="#1E56C9" fill-opacity="0.55" style="animation-delay:7.2s"></circle><circle class="nd" cx="993.5" cy="966.8" r="6.0" fill="#2E5A7C" fill-opacity="0.55" style="animation-delay:1.4s"></circle><circle class="nd" cx="497.5" cy="261.2" r="2.7" fill="#4A6B8F" fill-opacity="0.55" style="animation-delay:1.1s"></circle><circle class="nd" cx="1442.4" cy="1027.7" r="2.7" fill="#1E56C9" fill-opacity="0.55" style="animation-delay:4.7s"></circle><circle class="nd" cx="743.5" cy="654.1" r="2.5" fill="#2E5A7C" fill-opacity="0.55" style="animation-delay:3.1s"></circle><circle class="nd" cx="691.5" cy="1018.6" r="2.3" fill="#4A6B8F" fill-opacity="0.55" style="animation-delay:1.9s"></circle><circle class="nd" cx="1207.3" cy="350.3" r="5.4" fill="#2E5A7C" fill-opacity="0.55" style="animation-delay:7.5s"></circle><circle class="nd" cx="382.6" cy="689.1" r="2.8" fill="#4A6B8F" fill-opacity="0.55" style="animation-delay:5.3s"></circle></svg>